<svg xmlns="http://www.w3.org/2000/svg" width="16" height="16" viewBox="0 0 16 16" fill="none">
  <path opacity="0.4" fill-rule="evenodd" clip-rule="evenodd" d="M14.6668 8.67655V10.0075C14.6668 11.8896 14.6668 12.8307 14.081 13.4153C13.4952 14.0001 12.5524 14.0001 10.6668 14.0001H6.66683C4.15267 14.0001 2.8956 14.0001 2.11454 13.2205C1.3335 12.4409 1.3335 11.1861 1.3335 8.67655L1.33353 7.09475C1.33393 6.00704 1.33413 5.4632 1.72462 5.07357C2.11512 4.68394 2.68288 4.68394 3.8184 4.68394H12.0002C12.3874 4.63012 13.3458 4.67171 14.081 5.26865C14.6668 5.85335 14.6668 6.79441 14.6668 8.67655ZM11.6668 10.3334C11.1146 10.3334 10.6668 9.88568 10.6668 9.33341C10.6668 8.78115 11.1146 8.33341 11.6668 8.33341C12.2191 8.33341 12.6668 8.78115 12.6668 9.33341C12.6668 9.88568 12.2191 10.3334 11.6668 10.3334Z" fill="url(#paint0_linear_2193_449)"/>
  <path d="M10.667 9.3335C10.667 9.88576 11.1147 10.3335 11.667 10.3335C12.2193 10.3335 12.667 9.88576 12.667 9.3335C12.667 8.78123 12.2193 8.3335 11.667 8.3335C11.1147 8.3335 10.667 8.78123 10.667 9.3335Z" stroke="url(#paint1_linear_2193_449)" stroke-width="1.5"/>
  <path d="M6.66683 4.66667H10.6668C12.5524 4.66667 13.4952 4.66667 14.081 5.25245C14.6668 5.83824 14.6668 6.78107 14.6668 8.66667V10C14.6668 11.8856 14.6668 12.8284 14.081 13.4142C13.4952 14 12.5524 14 10.6668 14H6.66683C4.15267 14 2.8956 14 2.11454 13.2189C1.3335 12.4379 1.3335 11.1808 1.3335 8.66667V7.33333C1.3335 4.81917 1.3335 3.5621 2.11454 2.78105C2.8956 2 4.15267 2 6.66683 2H9.3335C9.9535 2 10.2635 2 10.5178 2.06815C11.208 2.25308 11.7471 2.79218 11.932 3.48236C12.0002 3.73669 12.0002 4.04669 12.0002 4.66667" stroke="url(#paint2_linear_2193_449)" stroke-width="1.5" stroke-linecap="round"/>
  <defs>
    <linearGradient id="paint0_linear_2193_449" x1="8.00016" y1="4.66675" x2="8.00016" y2="14.0001" gradientUnits="userSpaceOnUse">
      <stop stop-color="#FFDE4D"/>
      <stop offset="0.67" stop-color="#FFB22C"/>
    </linearGradient>
    <linearGradient id="paint1_linear_2193_449" x1="11.667" y1="8.3335" x2="11.667" y2="10.3335" gradientUnits="userSpaceOnUse">
      <stop stop-color="#FFDE4D"/>
      <stop offset="0.67" stop-color="#FFB22C"/>
    </linearGradient>
    <linearGradient id="paint2_linear_2193_449" x1="8.00016" y1="2" x2="8.00016" y2="14" gradientUnits="userSpaceOnUse">
      <stop stop-color="#FFDE4D"/>
      <stop offset="0.67" stop-color="#FFB22C"/>
    </linearGradient>
  </defs>
</svg>