<svg xmlns="http://www.w3.org/2000/svg" width="25" height="24" viewBox="0 0 25 24" fill="none">
  <path opacity="0.4" d="M12.3335 21.5C17.5802 21.5 21.8335 17.2467 21.8335 12C21.8335 11.6584 21.8155 11.3211 21.7803 10.9888C21.7336 11.1668 21.6548 11.3456 21.5387 11.5336C21.5183 11.5667 21.4804 11.6234 21.4576 11.655C20.8481 12.5 19.9043 12.5 18.0166 12.5H15.906C13.9862 12.5 13.0263 12.5 12.4299 11.9036C11.8335 11.3072 11.8335 10.3473 11.8335 8.42748V6.31686C11.8335 4.42922 11.8335 3.4854 12.6785 2.87587C12.7101 2.85309 12.7668 2.81523 12.7999 2.79477C12.9879 2.67867 13.1667 2.59988 13.3447 2.55318C13.0124 2.51803 12.6751 2.5 12.3335 2.5C7.08679 2.5 2.8335 6.75329 2.8335 12C2.8335 17.2467 7.08679 21.5 12.3335 21.5Z" fill="#A3A3A3"/>
  <path d="M20.8335 15.8278C18.332 21.756 10.1976 23.4835 5.53493 18.8641C0.962979 14.3347 2.37843 6.12883 8.39003 3.5" stroke="#A3A3A3" stroke-width="1.5" stroke-linecap="round"/>
  <path d="M18.0166 12.5C19.9043 12.5 20.8481 12.5 21.4576 11.655C21.4804 11.6234 21.5183 11.5667 21.5387 11.5336C22.0862 10.6471 21.804 9.966 21.2398 8.60378C20.7281 7.36853 19.9782 6.24615 19.0328 5.30073C18.0873 4.35531 16.965 3.60536 15.7297 3.0937C14.3675 2.52946 13.6864 2.24733 12.7999 2.79477C12.7668 2.81523 12.7101 2.85309 12.6785 2.87587C11.8335 3.4854 11.8335 4.42922 11.8335 6.31686V8.42748C11.8335 10.3473 11.8335 11.3072 12.4299 11.9036C13.0263 12.5 13.9862 12.5 15.906 12.5H18.0166Z" stroke="#A3A3A3" stroke-width="1.5"/>
</svg>