<svg xmlns="http://www.w3.org/2000/svg" width="24" height="24" viewBox="0 0 24 24" fill="none">
  <path opacity="0.4" d="M7 8.37931H11.5M11.5 8.37931H14.5M11.5 8.37931V7M17 8.37931H14.5M14.5 8.37931C13.9725 10.2656 12.8679 12.0487 11.6071 13.6158M11.6071 13.6158C10.5631 14.9134 9.41205 16.0628 8.39286 17M11.6071 13.6158C10.9643 12.8621 10.0643 11.6426 9.80714 11.0909M11.6071 13.6158L13.5357 15.6207" stroke="url(#paint0_linear_2270_1712)" stroke-width="1.5" stroke-linecap="round" stroke-linejoin="round"/>
  <path d="M2.5 12C2.5 7.52166 2.5 5.28249 3.89124 3.89124C5.28249 2.5 7.52166 2.5 12 2.5C16.4783 2.5 18.7175 2.5 20.1088 3.89124C21.5 5.28249 21.5 7.52166 21.5 12C21.5 16.4783 21.5 18.7175 20.1088 20.1088C18.7175 21.5 16.4783 21.5 12 21.5C7.52166 21.5 5.28249 21.5 3.89124 20.1088C2.5 18.7175 2.5 16.4783 2.5 12Z" stroke="url(#paint1_linear_2270_1712)" stroke-width="1.5"/>
  <defs>
    <linearGradient id="paint0_linear_2270_1712" x1="12" y1="7" x2="12" y2="17" gradientUnits="userSpaceOnUse">
      <stop stop-color="#FFDE4D"/>
      <stop offset="0.67" stop-color="#FFB22C"/>
    </linearGradient>
    <linearGradient id="paint1_linear_2270_1712" x1="12" y1="2.5" x2="12" y2="21.5" gradientUnits="userSpaceOnUse">
      <stop stop-color="#FFDE4D"/>
      <stop offset="0.67" stop-color="#FFB22C"/>
    </linearGradient>
  </defs>
</svg>