<svg xmlns="http://www.w3.org/2000/svg" width="24" height="24" viewBox="0 0 24 24" fill="none">
  <path opacity="0.4" d="M8.5 11L9.5 12M9.5 12L10.5 13M9.5 12L10.5 11M9.5 12L8.5 13" stroke="url(#paint0_linear_2270_1676)" stroke-width="1.5" stroke-linecap="round"/>
  <path opacity="0.4" d="M3.5 11L4.5 12M4.5 12L5.5 13M4.5 12L5.5 11M4.5 12L3.5 13" stroke="url(#paint1_linear_2270_1676)" stroke-width="1.5" stroke-linecap="round"/>
  <path opacity="0.4" d="M13.5 11L14.5 12M14.5 12L15.5 13M14.5 12L15.5 11M14.5 12L13.5 13" stroke="url(#paint2_linear_2270_1676)" stroke-width="1.5" stroke-linecap="round"/>
  <path opacity="0.4" d="M18.5 11L19.5 12M19.5 12L20.5 13M19.5 12L20.5 11M19.5 12L18.5 13" stroke="url(#paint3_linear_2270_1676)" stroke-width="1.5" stroke-linecap="round"/>
  <path d="M19.6337 16C17.9509 18.8033 15.1068 20.6217 13.4059 21.5194C12.7988 21.8398 12.4953 22 11.9999 22C11.5045 22 11.201 21.8398 10.5939 21.5194C8.89298 20.6217 6.04894 18.8033 4.36613 16M20.9998 8C20.9985 6.54505 20.9762 5.7889 20.5958 5.28529C20.1917 4.75029 19.278 4.49056 17.4506 3.9711C16.2021 3.6162 15.1015 3.18863 14.2222 2.79829C13.0233 2.2661 12.4239 2 11.9999 2C11.5759 2 10.9765 2.2661 9.77763 2.79829C8.89831 3.18863 7.79776 3.61619 6.54925 3.9711C4.72185 4.49056 3.80814 4.75029 3.40403 5.28529C3.02363 5.7889 3.00131 6.54505 3 8" stroke="url(#paint4_linear_2270_1676)" stroke-width="1.5" stroke-linecap="round"/>
  <defs>
    <linearGradient id="paint0_linear_2270_1676" x1="9.5" y1="11" x2="9.5" y2="13" gradientUnits="userSpaceOnUse">
      <stop stop-color="#FFDE4D"/>
      <stop offset="0.67" stop-color="#FFB22C"/>
    </linearGradient>
    <linearGradient id="paint1_linear_2270_1676" x1="4.5" y1="11" x2="4.5" y2="13" gradientUnits="userSpaceOnUse">
      <stop stop-color="#FFDE4D"/>
      <stop offset="0.67" stop-color="#FFB22C"/>
    </linearGradient>
    <linearGradient id="paint2_linear_2270_1676" x1="14.5" y1="11" x2="14.5" y2="13" gradientUnits="userSpaceOnUse">
      <stop stop-color="#FFDE4D"/>
      <stop offset="0.67" stop-color="#FFB22C"/>
    </linearGradient>
    <linearGradient id="paint3_linear_2270_1676" x1="19.5" y1="11" x2="19.5" y2="13" gradientUnits="userSpaceOnUse">
      <stop stop-color="#FFDE4D"/>
      <stop offset="0.67" stop-color="#FFB22C"/>
    </linearGradient>
    <linearGradient id="paint4_linear_2270_1676" x1="11.9999" y1="2" x2="11.9999" y2="22" gradientUnits="userSpaceOnUse">
      <stop stop-color="#FFDE4D"/>
      <stop offset="0.67" stop-color="#FFB22C"/>
    </linearGradient>
  </defs>
</svg>