<svg xmlns="http://www.w3.org/2000/svg" width="24" height="24" viewBox="0 0 24 24" fill="none">
  <path d="M4.5795 8.60699L2 8.45417C3.849 3.70488 9.15764 0.999848 14.3334 2.34477C19.8461 3.77722 23.1205 9.26153 21.647 14.5943C20.4283 19.0051 16.3433 21.9307 11.8479 22" stroke="url(#paint0_linear_2270_1696)" stroke-width="1.5" stroke-linecap="round" stroke-linejoin="round"/>
  <path opacity="0.4" d="M12 22C6.5 22 2 17 2 11" stroke="url(#paint1_linear_2270_1696)" stroke-width="1.5" stroke-linecap="round" stroke-linejoin="round" stroke-dasharray="0.5 3"/>
  <path d="M13.5737 9.72177C13.2222 9.35267 12.3603 8.48536 10.9989 9.10111C9.63758 9.71686 9.42132 11.698 11.4805 11.9085C12.4113 12.0036 13.0181 11.7981 13.5737 12.3794C14.1292 12.9607 14.2324 14.5774 12.8122 15.013C11.392 15.4487 10.4717 14.7292 10.2242 14.5041M11.8775 8.01953V8.81056M11.8775 15.1471V16.0195" stroke="url(#paint2_linear_2270_1696)" stroke-width="1.5" stroke-linecap="round" stroke-linejoin="round"/>
  <defs>
    <linearGradient id="paint0_linear_2270_1696" x1="12" y1="2" x2="12" y2="22" gradientUnits="userSpaceOnUse">
      <stop stop-color="#FFDE4D"/>
      <stop offset="0.67" stop-color="#FFB22C"/>
    </linearGradient>
    <linearGradient id="paint1_linear_2270_1696" x1="7" y1="11" x2="7" y2="22" gradientUnits="userSpaceOnUse">
      <stop stop-color="#FFDE4D"/>
      <stop offset="0.67" stop-color="#FFB22C"/>
    </linearGradient>
    <linearGradient id="paint2_linear_2270_1696" x1="11.9551" y1="8.01953" x2="11.9551" y2="16.0195" gradientUnits="userSpaceOnUse">
      <stop stop-color="#FFDE4D"/>
      <stop offset="0.67" stop-color="#FFB22C"/>
    </linearGradient>
  </defs>
</svg>